<svg xmlns="http://www.w3.org/2000/svg" viewBox="0 0 320 180" width="100%" height="100%" preserveAspectRatio="xMidYMid meet">
  <defs>
    <linearGradient id="bg_minerva" x1="0%" y1="0%" x2="100%" y2="100%">
      <stop offset="0%" stop-color="#0f172a" />
      <stop offset="50%" stop-color="#1e1b4b" />
      <stop offset="100%" stop-color="#020617" />
    </linearGradient>
    <linearGradient id="gold_minerva" x1="0%" y1="0%" x2="100%" y2="100%">
      <stop offset="0%" stop-color="#fde68a" />
      <stop offset="50%" stop-color="#f59e0b" />
      <stop offset="100%" stop-color="#b45309" />
    </linearGradient>
  </defs>
  <rect width="320" height="180" fill="url(#bg_minerva)" />
  <!-- Scaffali di biblioteca geometrici a sinistra -->
  <g stroke="#334155" stroke-width="1.2" opacity="0.4">
    <line x1="20" y1="20" x2="20" y2="160" />
    <line x1="20" y1="60" x2="130" y2="60" />
    <line x1="20" y1="110" x2="130" y2="110" />
    <line x1="20" y1="150" x2="130" y2="150" />
    <!-- Volumi ordinati -->
    <rect x="30" y="66" width="10" height="42" fill="#1e293b" />
    <rect x="42" y="70" width="8" height="38" fill="#4338ca" />
    <rect x="52" y="64" width="12" height="44" fill="#312e81" />
    <rect x="66" y="68" width="9" height="40" fill="#b45309" />
  </g>
  <!-- Curva di dati scientifici ed evidenze empirical con punti perlacei -->
  <path d="M 40 145 C 80 140, 110 85, 150 95 C 180 102, 210 50, 240 65" fill="none" stroke="#38bdf8" stroke-width="2" />
  <circle cx="85" cy="120" r="3" fill="#ffffff" stroke="#0284c7" stroke-width="1" />
  <circle cx="150" cy="95" r="3" fill="#ffffff" stroke="#0284c7" stroke-width="1" />
  <circle cx="210" cy="65" r="3" fill="#ffffff" stroke="#f59e0b" stroke-width="1" />
  <!-- Civetta stilizzata della sapienza a destra -->
  <g transform="translate(245, 75)">
    <!-- Corpo e ali -->
    <path d="M 0 55 C -25 50, -32 10, 0 -25 C 32 10, 25 50, 0 55 Z" fill="#1e293b" stroke="url(#gold_minerva)" stroke-width="1.5" />
    <!-- Occhi grandi e saggi con cerchi concentrici -->
    <circle cx="-12" cy="-6" r="11" fill="#0f172a" stroke="url(#gold_minerva)" stroke-width="1.5" />
    <circle cx="-12" cy="-6" r="5" fill="#fef08a" />
    <circle cx="-12" cy="-6" r="2" fill="#0f172a" />
    <circle cx="12" cy="-6" r="11" fill="#0f172a" stroke="url(#gold_minerva)" stroke-width="1.5" />
    <circle cx="12" cy="-6" r="5" fill="#fef08a" />
    <circle cx="12" cy="-6" r="2" fill="#0f172a" />
    <!-- Becco geometrico -->
    <polygon points="0,0 -4,7 4,7" fill="#f59e0b" />
    <!-- Piumaggio frontale chevron -->
    <path d="M -8 24 L 0 30 L 8 24" fill="none" stroke="#fef08a" stroke-width="1" opacity="0.6" />
    <path d="M -8 34 L 0 40 L 8 34" fill="none" stroke="#fef08a" stroke-width="1" opacity="0.6" />
  </g>
</svg>
