<svg xmlns="http://www.w3.org/2000/svg" viewBox="0 0 320 180" width="100%" height="100%" preserveAspectRatio="xMidYMid meet">
  <defs>
    <linearGradient id="bg_nora" x1="0%" y1="0%" x2="100%" y2="100%">
      <stop offset="0%" stop-color="#0f172a" />
      <stop offset="60%" stop-color="#1e1b4b" />
      <stop offset="100%" stop-color="#0284c7" />
    </linearGradient>
    <linearGradient id="prism_nora" x1="0%" y1="0%" x2="100%" y2="100%">
      <stop offset="0%" stop-color="#22d3ee" stop-opacity="0.9" />
      <stop offset="50%" stop-color="#38bdf8" stop-opacity="0.4" />
      <stop offset="100%" stop-color="#e0f2fe" stop-opacity="0.9" />
    </linearGradient>
  </defs>
  <rect width="320" height="180" fill="url(#bg_nora)" />
  <!-- Linea d'orizzonte pura ed essenziale -->
  <line x1="0" y1="125" x2="320" y2="125" stroke="#06b6d4" stroke-width="1.2" opacity="0.6" />
  <!-- Assi cartesiani essenziali sul lato sinistro -->
  <g stroke="#94a3b8" stroke-width="1" opacity="0.5">
    <line x1="45" y1="35" x2="45" y2="155" />
    <line x1="25" y1="135" x2="145" y2="135" />
    <line x1="42" y1="105" x2="48" y2="105" />
    <line x1="42" y1="75" x2="48" y2="75" />
    <line x1="75" y1="132" x2="75" y2="138" />
    <line x1="105" y1="132" x2="105" y2="138" />
  </g>
  <!-- Prisma geometrico minimale trasparente al centro -->
  <g transform="translate(140, 65)">
    <polygon points="25,-25 65,45 -15,45" fill="url(#prism_nora)" stroke="#e2e8f0" stroke-width="1.5" />
    <line x1="25" y1="-25" x2="25" y2="45" stroke="#ffffff" stroke-width="1" stroke-dasharray="3 3" opacity="0.7" />
    <circle cx="25" cy="-25" r="3" fill="#fef08a" />
  </g>
  <!-- Bussola cartesiana essenziale a destra -->
  <g transform="translate(245, 90)">
    <circle cx="0" cy="0" r="32" fill="#0f172a" stroke="#06b6d4" stroke-width="1.5" />
    <circle cx="0" cy="0" r="28" fill="none" stroke="#38bdf8" stroke-width="0.8" stroke-dasharray="2 4" />
    <!-- Ago sottile nord/sud -->
    <polygon points="0,0 -4,-3 0,-24 4,-3" fill="#06b6d4" />
    <polygon points="0,0 -4,3 0,24 4,3" fill="#94a3b8" />
    <circle cx="0" cy="0" r="3" fill="#ffffff" />
  </g>
</svg>
